<?xml version="1.0" encoding="UTF-8" standalone="no"?>
<svg width="274px" height="292px" viewBox="0 0 274 292" version="1.1" xmlns="http://www.w3.org/2000/svg" xmlns:xlink="http://www.w3.org/1999/xlink">
    <!-- Generator: Sketch 3.6.1 (26313) - http://www.bohemiancoding.com/sketch -->
    <title>Combined Shape</title>
    <desc>Created with Sketch.</desc>
    <defs></defs>
    <g id="Page-1" stroke="none" stroke-width="1" fill="none" fill-rule="evenodd">
        <path d="M17.125,75.2628691 L17.125,216.737128 C6.21358316,195.781566 0,171.664082 0,146 C0,120.335918 6.21358316,96.218434 17.1249956,75.2628775 Z M51.375,32.0219801 L51.375,259.97802 C45.2074484,254.709131 39.4767446,248.883481 34.25,242.57259 L34.25,49.4274096 C39.4767446,43.1165186 45.2074484,37.2908686 51.375,32.0219801 Z M102.75,4.59963821 L102.75,287.400362 C90.5990825,284.06748 79.1005677,279.00274 68.4999619,272.467776 L68.5,19.5322005 C79.1005677,12.9972598 90.5990825,7.93251983 102.75,4.59963821 Z M119.875,290.870439 L119.875,1.12956103 C125.485051,0.384040798 131.200442,0 137,0 C212.663011,0 274,65.3664265 274,146 C274,226.633573 212.663011,292 137,292 C131.200442,292 125.485051,291.615959 119.875,290.870439 Z" id="Combined-Shape" fill="#243C96"></path>
    </g>
</svg>